<?xml version="1.0" encoding="UTF-8"?>
<svg width="27px" height="27px" viewBox="0 0 27 27" version="1.1" xmlns="http://www.w3.org/2000/svg" xmlns:xlink="http://www.w3.org/1999/xlink">
    <!-- Generator: Sketch 52.6 (67491) - http://www.bohemiancoding.com/sketch -->
    <title>Group 8</title>
    <desc>Created with Sketch.</desc>
    <defs>
        <polygon id="path-1" points="2.6e-05 0.0082732 26.199732 0.0082732 26.199732 26.208 2.6e-05 26.208"></polygon>
    </defs>
    <g id="Web" stroke="none" stroke-width="1" fill="none" fill-rule="evenodd">
        <g id="Collection" transform="translate(-1332.000000, -2860.000000)">
            <g id="Footer" transform="translate(0.000000, 2423.000000)">
                <g id="Group-8" transform="translate(1332.000000, 437.000000)">
                    <g id="Group-3" transform="translate(0.000000, 0.043732)">
                        <mask id="mask-2" fill="white">
                            <use xlink:href="#path-1"></use>
                        </mask>
                        <g id="Clip-2"></g>
                        <path d="M13.099866,0.0082732 C9.542182,0.0082732 9.096022,0.0233532 7.698834,0.0871052 C6.304454,0.1507012 5.35223,0.3721692 4.51893,0.6960252 C3.65755,1.0307492 2.92695,1.4786772 2.19869,2.2069372 C1.470378,2.9352492 1.022502,3.6657972 0.687726,4.5271772 C0.36387,5.3604772 0.142454,6.3127012 0.078806,7.7070812 C0.015054,9.1043212 2.6e-05,9.5503772 2.6e-05,13.1081132 C2.6e-05,16.6658492 0.015054,17.1119572 0.078806,18.5091972 C0.142454,19.9035252 0.36387,20.8558012 0.687726,21.6890492 C1.022502,22.5504292 1.470378,23.2810292 2.19869,24.0092892 C2.92695,24.7376012 3.65755,25.1854772 4.51893,25.5203052 C5.35223,25.8441092 6.304454,26.0655772 7.698834,26.1292252 C9.096022,26.1929252 9.542182,26.2080052 13.099866,26.2080052 C16.657602,26.2080052 17.103658,26.1929252 18.500898,26.1292252 C19.895278,26.0655772 20.847502,25.8441092 21.680802,25.5203052 C22.542234,25.1854772 23.272782,24.7376012 24.001042,24.0092892 C24.729354,23.2810292 25.17723,22.5504812 25.512006,21.6890492 C25.835862,20.8558012 26.05733,19.9035252 26.120926,18.5091972 C26.184678,17.1119572 26.199758,16.6658492 26.199758,13.1081132 C26.199758,9.5504292 26.184678,9.1043212 26.120926,7.7070812 C26.05733,6.3127012 25.835862,5.3604772 25.512006,4.5271772 C25.17723,3.6657972 24.729354,2.9352492 24.001042,2.2069372 C23.272782,1.4786772 22.542234,1.0307492 21.680802,0.6960252 C20.847502,0.3721692 19.895278,0.1507012 18.500898,0.0871052 C17.103658,0.0233532 16.657602,0.0082732 13.099866,0.0082732 M13.099866,2.3686052 C16.597698,2.3686052 17.011982,2.3819172 18.39331,2.4449412 C19.670534,2.5032332 20.364162,2.7166412 20.825766,2.8960412 C21.437234,3.1336812 21.87367,3.4175492 22.33205,3.8759292 C22.79043,4.3343612 23.074298,4.7707452 23.31199,5.3822132 C23.491338,5.8438172 23.704746,6.5374452 23.763038,7.8146692 C23.82601,9.1959972 23.839374,9.6103332 23.839374,13.1081132 C23.839374,16.6059452 23.82601,17.0202812 23.763038,18.4015572 C23.704746,19.6788332 23.491338,20.3724612 23.31199,20.8340652 C23.074298,21.4454812 22.79043,21.8819172 22.33205,22.3402972 C21.87367,22.7987292 21.437234,23.0825972 20.825766,23.3202372 C20.364162,23.4995852 19.670534,23.7130452 18.39331,23.7712852 C17.01219,23.8343092 16.597958,23.8476732 13.099866,23.8476732 C9.601774,23.8476732 9.187542,23.8343092 7.806422,23.7712852 C6.529198,23.7130452 5.835518,23.4995852 5.373914,23.3202372 C4.762498,23.0825972 4.326062,22.7987292 3.867682,22.3402972 C3.409302,21.8819172 3.125382,21.4454812 2.887742,20.8340652 C2.708394,20.3724612 2.494986,19.6788332 2.436694,18.4016092 C2.37367,17.0202812 2.360358,16.6059452 2.360358,13.1081132 C2.360358,9.6103332 2.37367,9.1959972 2.436694,7.8146692 C2.494986,6.5374452 2.708394,5.8438172 2.887742,5.3822132 C3.125382,4.7707452 3.409302,4.3343612 3.867682,3.8759812 C4.326062,3.4175492 4.762498,3.1336812 5.373914,2.8960412 C5.835518,2.7166412 6.529198,2.5032332 7.80637,2.4449412 C9.18775,2.3819172 9.602034,2.3686052 13.099866,2.3686052" id="Fill-1" fill="#FFFFFF" mask="url(#mask-2)"></path>
                    </g>
                    <path d="M13.099866,17.5184932 C10.688262,17.5184932 8.733218,15.5634492 8.733218,13.1518452 C8.733218,10.7402412 10.688262,8.7852492 13.099866,8.7852492 C15.51147,8.7852492 17.466514,10.7402412 17.466514,13.1518452 C17.466514,15.5634492 15.51147,17.5184932 13.099866,17.5184932 M13.099866,6.4249172 C9.384674,6.4249172 6.372886,9.4366532 6.372886,13.1518452 C6.372886,16.8670892 9.384674,19.8788252 13.099866,19.8788252 C16.815058,19.8788252 19.826794,16.8670892 19.826794,13.1518452 C19.826794,9.4366532 16.815058,6.4249172 13.099866,6.4249172" id="Fill-4" fill="#FFFFFF"></path>
                    <path d="M21.6645832,6.1591348 C21.6645832,7.0273268 20.9608152,7.7310948 20.0926232,7.7310948 C19.2244312,7.7310948 18.5206112,7.0273268 18.5206112,6.1591348 C18.5206112,5.2909428 19.2244312,4.5871748 20.0926232,4.5871748 C20.9608152,4.5871748 21.6645832,5.2909428 21.6645832,6.1591348" id="Fill-6" fill="#FFFFFF"></path>
                </g>
            </g>
        </g>
    </g>
</svg>